<svg width="21" height="21" viewBox="0 0 21 21" fill="none" xmlns="http://www.w3.org/2000/svg">
<circle cx="10.5" cy="10.5" r="10.5" fill="#BF616A"/>
<path d="M11.999 4.20312L11.665 13.0186H9.40625L9.07227 4.20312H11.999ZM8.99316 15.752C8.99316 15.3594 9.13379 15.0283 9.41504 14.7588C9.69629 14.4893 10.0684 14.3545 10.5312 14.3545C10.9883 14.3545 11.3545 14.4893 11.6299 14.7588C11.9111 15.0283 12.0518 15.3594 12.0518 15.752C12.0518 16.1504 11.9111 16.4844 11.6299 16.7539C11.3545 17.0176 10.9883 17.1494 10.5312 17.1494C10.0684 17.1494 9.69629 17.0176 9.41504 16.7539C9.13379 16.4844 8.99316 16.1504 8.99316 15.752Z" fill="white"/>
</svg>
