<svg width="21" height="14" viewBox="0 0 21 14" fill="none" xmlns="http://www.w3.org/2000/svg">
<path d="M19.3433 6.57998C18.9779 6.90397 18.6402 7.21795 18.3151 7.52026C17.4553 8.31981 16.6833 9.03769 15.7181 9.64285C14.4581 10.4329 12.8874 11 10.5 11C6.39362 11 4.4568 9.19423 2.43441 7.30867C2.1784 7.06998 1.92102 6.83002 1.65769 6.59228C1.64167 6.57781 1.62141 6.54639 1.62119 6.49393C1.62097 6.4414 1.64107 6.40915 1.6575 6.39403C1.84502 6.22146 2.03253 6.04546 2.22163 5.86797C4.19509 4.01569 6.34265 2 10.5 2C12.8874 2 14.4581 2.56714 15.7181 3.35715C16.6833 3.96231 17.4553 4.68018 18.3151 5.47973C18.6402 5.78204 18.9779 6.09603 19.3433 6.42002C19.358 6.43301 19.374 6.45821 19.374 6.5C19.374 6.54179 19.358 6.56699 19.3433 6.57998Z" stroke="#90989E" stroke-width="2"/>
<circle cx="10.5" cy="6.5" r="2.5" fill="#90989E"/>
<line x1="18.6247" y1="0.780869" x2="3.62469" y2="12.7809" stroke="#90989E" stroke-width="2"/>
</svg>
