<svg width="21" height="11" viewBox="0 0 21 11" fill="none" xmlns="http://www.w3.org/2000/svg">
<path d="M19.3433 5.57998C18.9779 5.90397 18.6402 6.21796 18.3151 6.52027C17.4553 7.31982 16.6833 8.03769 15.7181 8.64285C14.4581 9.43286 12.8874 10 10.5 10C6.39362 10 4.4568 8.19423 2.43441 6.30867C2.1784 6.06998 1.92102 5.83002 1.65769 5.59228C1.64167 5.57781 1.62141 5.54639 1.62119 5.49393C1.62097 5.4414 1.64107 5.40915 1.6575 5.39403C1.84502 5.22146 2.03253 5.04546 2.22163 4.86797C4.19509 3.01569 6.34265 1 10.5 1C12.8874 1 14.4581 1.56714 15.7181 2.35715C16.6833 2.96231 17.4553 3.68019 18.3151 4.47974C18.6402 4.78205 18.9779 5.09604 19.3433 5.42002C19.358 5.43301 19.374 5.45821 19.374 5.5C19.374 5.54179 19.358 5.56699 19.3433 5.57998Z" stroke="#90989E" stroke-width="2"/>
<circle cx="10.5" cy="5.5" r="2.5" fill="#90989E"/>
</svg>
