<svg width="400" height="272" viewBox="0 0 400 272" fill="none" xmlns="http://www.w3.org/2000/svg">
<g clip-path="url(#clip0_11_9)">
<rect opacity="0.8" width="400" height="272" fill="url(#paint0_radial_11_9)"/>
<path d="M53.1671 56.88H62.1271L80.9571 107H72.2771L67.7971 94.19H47.5671L43.0171 107H34.3371L53.1671 56.88ZM65.1371 86.91L59.8171 72L57.8571 66.19H57.4371L55.4771 72L50.1571 86.91H65.1371ZM99.5273 108.12C95.4207 108.12 92.0607 107.233 89.4473 105.46C86.834 103.64 84.9907 101.33 83.9173 98.53L90.7773 95.52C91.6173 97.3867 92.784 98.81 94.2773 99.79C95.8173 100.77 97.5673 101.26 99.5273 101.26C101.441 101.26 103.051 100.933 104.357 100.28C105.664 99.58 106.317 98.5533 106.317 97.2C106.317 95.8933 105.757 94.8667 104.637 94.12C103.517 93.3733 101.791 92.72 99.4573 92.16L95.1873 91.11C92.3407 90.41 89.984 89.1733 88.1173 87.4C86.2507 85.6267 85.3173 83.3867 85.3173 80.68C85.3173 78.58 85.924 76.7367 87.1373 75.15C88.3973 73.5633 90.0773 72.35 92.1773 71.51C94.2773 70.6233 96.564 70.18 99.0373 70.18C102.351 70.18 105.267 70.8567 107.787 72.21C110.307 73.5167 112.127 75.43 113.247 77.95L106.527 80.89C105.174 78.1367 102.701 76.76 99.1073 76.76C97.3807 76.76 95.934 77.11 94.7673 77.81C93.6007 78.51 93.0173 79.42 93.0173 80.54C93.0173 81.6133 93.4607 82.5 94.3473 83.2C95.234 83.8533 96.5407 84.4133 98.2673 84.88L103.517 86.21C107.017 87.0967 109.654 88.45 111.427 90.27C113.247 92.0433 114.157 94.2367 114.157 96.85C114.157 99.09 113.504 101.073 112.197 102.8C110.937 104.48 109.187 105.787 106.947 106.72C104.707 107.653 102.234 108.12 99.5273 108.12ZM135.112 107.56C133.525 107.56 132.032 107.303 130.632 106.79C129.232 106.277 128.089 105.6 127.202 104.76C125.195 102.753 124.192 100.023 124.192 96.57V78.09H117.962V71.3H124.192V61.22H131.892V71.3H140.572V78.09H131.892V94.89C131.892 96.8033 132.265 98.1567 133.012 98.95C133.712 99.8833 134.925 100.35 136.652 100.35C137.445 100.35 138.145 100.257 138.752 100.07C139.359 99.8367 140.012 99.4867 140.712 99.02V106.51C139.172 107.21 137.305 107.56 135.112 107.56ZM162.837 108.12C159.337 108.12 156.187 107.303 153.387 105.67C150.634 104.037 148.464 101.797 146.877 98.95C145.337 96.0567 144.567 92.8133 144.567 89.22C144.567 85.8133 145.314 82.6633 146.807 79.77C148.347 76.83 150.47 74.4967 153.177 72.77C155.884 71.0433 158.964 70.18 162.417 70.18C166.01 70.18 169.114 70.9733 171.727 72.56C174.387 74.1467 176.394 76.3167 177.747 79.07C179.147 81.8233 179.847 84.9267 179.847 88.38C179.847 89.0333 179.777 89.85 179.637 90.83H152.267C152.547 94.1433 153.714 96.71 155.767 98.53C157.867 100.303 160.294 101.19 163.047 101.19C165.24 101.19 167.13 100.7 168.717 99.72C170.35 98.6933 171.657 97.3167 172.637 95.59L179.147 98.67C177.467 101.61 175.274 103.92 172.567 105.6C169.86 107.28 166.617 108.12 162.837 108.12ZM172.007 84.95C171.914 83.69 171.517 82.4533 170.817 81.24C170.117 79.98 169.044 78.93 167.597 78.09C166.197 77.25 164.47 76.83 162.417 76.83C159.944 76.83 157.844 77.5767 156.117 79.07C154.437 80.5167 153.27 82.4767 152.617 84.95H172.007ZM186.859 71.3H194.209V76.55H194.559C195.352 74.73 196.729 73.2367 198.689 72.07C200.649 70.8567 202.726 70.25 204.919 70.25C206.646 70.25 208.092 70.4833 209.259 70.95V78.93C207.206 78.1833 205.362 77.81 203.729 77.81C201.956 77.81 200.369 78.2767 198.969 79.21C197.616 80.1433 196.542 81.4033 195.749 82.99C194.956 84.53 194.559 86.2333 194.559 88.1V107H186.859V71.3ZM219.57 66.12C218.123 66.12 216.886 65.63 215.86 64.65C214.88 63.6233 214.39 62.3867 214.39 60.94C214.39 59.4933 214.88 58.28 215.86 57.3C216.886 56.2733 218.123 55.76 219.57 55.76C221.016 55.76 222.23 56.2733 223.21 57.3C224.236 58.28 224.75 59.4933 224.75 60.94C224.75 62.3867 224.236 63.6233 223.21 64.65C222.23 65.63 221.016 66.12 219.57 66.12ZM215.72 71.3H223.42V107H215.72V71.3ZM246.021 108.12C241.915 108.12 238.555 107.233 235.941 105.46C233.328 103.64 231.485 101.33 230.411 98.53L237.271 95.52C238.111 97.3867 239.278 98.81 240.771 99.79C242.311 100.77 244.061 101.26 246.021 101.26C247.935 101.26 249.545 100.933 250.851 100.28C252.158 99.58 252.811 98.5533 252.811 97.2C252.811 95.8933 252.251 94.8667 251.131 94.12C250.011 93.3733 248.285 92.72 245.951 92.16L241.681 91.11C238.835 90.41 236.478 89.1733 234.611 87.4C232.745 85.6267 231.811 83.3867 231.811 80.68C231.811 78.58 232.418 76.7367 233.631 75.15C234.891 73.5633 236.571 72.35 238.671 71.51C240.771 70.6233 243.058 70.18 245.531 70.18C248.845 70.18 251.761 70.8567 254.281 72.21C256.801 73.5167 258.621 75.43 259.741 77.95L253.021 80.89C251.668 78.1367 249.195 76.76 245.601 76.76C243.875 76.76 242.428 77.11 241.261 77.81C240.095 78.51 239.511 79.42 239.511 80.54C239.511 81.6133 239.955 82.5 240.841 83.2C241.728 83.8533 243.035 84.4133 244.761 84.88L250.011 86.21C253.511 87.0967 256.148 88.45 257.921 90.27C259.741 92.0433 260.651 94.2367 260.651 96.85C260.651 99.09 259.998 101.073 258.691 102.8C257.431 104.48 255.681 105.787 253.441 106.72C251.201 107.653 248.728 108.12 246.021 108.12ZM267.318 56.88H275.018V86.07H275.228L289.858 71.3H299.518V71.72L285.658 85.51L299.938 106.58V107H290.768L280.268 90.83L275.018 95.94V107H267.318V56.88Z" fill="url(#paint1_linear_11_9)"/>
<path d="M200 283.838C203.325 230.137 248.05 122.236 400.349 120.233" stroke="#FC6C17" stroke-width="12"/>
<path d="M175.84 124.08H194.68L229.24 181.68H230.2L229.24 165.12V124.08H245.32V210H228.28L191.8 149.16H190.84L191.8 165.72V210H175.84V124.08ZM304.771 211.92C296.531 211.92 288.931 210 281.971 206.16C275.091 202.24 269.611 196.88 265.531 190.08C261.451 183.2 259.411 175.52 259.411 167.04C259.411 158.56 261.451 150.92 265.531 144.12C269.611 137.24 275.091 131.88 281.971 128.04C288.931 124.12 296.531 122.16 304.771 122.16C311.491 122.16 317.611 123.36 323.131 125.76C328.731 128.08 333.531 131.4 337.531 135.72L326.371 146.64C323.491 143.6 320.291 141.32 316.771 139.8C313.331 138.28 309.291 137.52 304.651 137.52C299.371 137.52 294.531 138.76 290.131 141.24C285.731 143.64 282.211 147.12 279.571 151.68C277.011 156.16 275.731 161.28 275.731 167.04C275.731 172.8 277.051 177.96 279.691 182.52C282.331 187 285.851 190.48 290.251 192.96C294.731 195.36 299.611 196.56 304.891 196.56C312.891 196.56 319.451 194.2 324.571 189.48C326.171 188.04 327.571 186.2 328.771 183.96C329.971 181.72 330.851 179.28 331.411 176.64H304.411V162.84H346.531C347.091 165.08 347.371 167.6 347.371 170.4C347.371 176.08 346.491 181.36 344.731 186.24C343.051 191.12 340.451 195.4 336.931 199.08C333.091 203.24 328.451 206.44 323.011 208.68C317.571 210.84 311.491 211.92 304.771 211.92Z" fill="white"/>
<path d="M165.807 273.072C169.695 210.278 221.994 84.1058 400.081 81.7635" stroke="#FC6C17" stroke-width="6"/>
<path d="M191.797 210H178.5L180 188L191.797 184.199V210Z" fill="white"/>
</g>
<defs>
<radialGradient id="paint0_radial_11_9" cx="0" cy="0" r="1" gradientUnits="userSpaceOnUse" gradientTransform="translate(400) rotate(145.784) scale(483.719 711.351)">
<stop stop-color="#FF8910"/>
<stop offset="1" stop-color="#FF6610"/>
</radialGradient>
<linearGradient id="paint1_linear_11_9" x1="303.5" y1="60" x2="30" y2="107" gradientUnits="userSpaceOnUse">
<stop stop-color="white"/>
<stop offset="0.0001" stop-color="white"/>
<stop offset="1" stop-color="#FFEADF"/>
</linearGradient>
<clipPath id="clip0_11_9">
<rect width="400" height="272" fill="white"/>
</clipPath>
</defs>
</svg>
