<?xml version="1.0" encoding="UTF-8" standalone="no"?>
<svg
   width="174"
   height="109"
   viewBox="0 0 174 109"
   fill="none"
   version="1.1"
   id="svg31"
   sodipodi:docname="logo_dp.svg"
   inkscape:version="1.2 (dc2aedaf03, 2022-05-15)"
   xmlns:inkscape="http://www.inkscape.org/namespaces/inkscape"
   xmlns:sodipodi="http://sodipodi.sourceforge.net/DTD/sodipodi-0.dtd"
   xmlns:xlink="http://www.w3.org/1999/xlink"
   xmlns="http://www.w3.org/2000/svg"
   xmlns:svg="http://www.w3.org/2000/svg">
  <sodipodi:namedview
     id="namedview33"
     pagecolor="#ffffff"
     bordercolor="#000000"
     borderopacity="0.25"
     inkscape:showpageshadow="2"
     inkscape:pageopacity="0.0"
     inkscape:pagecheckerboard="0"
     inkscape:deskcolor="#d1d1d1"
     showgrid="false"
     inkscape:zoom="4.6299357"
     inkscape:cx="79.050774"
     inkscape:cy="82.182567"
     inkscape:window-width="1920"
     inkscape:window-height="1080"
     inkscape:window-x="0"
     inkscape:window-y="0"
     inkscape:window-maximized="1"
     inkscape:current-layer="svg31" />
  <g
     clip-path="url(#clip0_11_21)"
     id="g12"
     transform="matrix(0.53941909,0,0,0.53941909,-0.05342772,28.923941)">
    <rect
       width="241"
       height="85"
       fill="url(#paint0_linear_11_21)"
       id="rect2"
       x="0"
       y="0"
       style="fill:url(#linearGradient1077)" />
    <path
       d="m 24.2263,34.532 h 2.944 L 33.3573,51 h -2.852 l -1.472,-4.209 h -6.647 L 20.8913,51 h -2.852 z m 3.933,9.867 -1.748,-4.899 -0.644,-1.909 h -0.138 l -0.644,1.909 -1.748,4.899 z m 11.2997,6.969 c -1.3493,0 -2.4533,-0.2913 -3.312,-0.874 -0.8587,-0.598 -1.4643,-1.357 -1.817,-2.277 l 2.254,-0.989 c 0.276,0.6133 0.6593,1.081 1.15,1.403 0.506,0.322 1.081,0.483 1.725,0.483 0.6287,0 1.1577,-0.1073 1.587,-0.322 0.4293,-0.23 0.644,-0.5673 0.644,-1.012 0,-0.4293 -0.184,-0.7667 -0.552,-1.012 -0.368,-0.2453 -0.9353,-0.46 -1.702,-0.644 l -1.403,-0.345 c -0.9353,-0.23 -1.7097,-0.6363 -2.323,-1.219 -0.6133,-0.5827 -0.92,-1.3187 -0.92,-2.208 0,-0.69 0.1993,-1.2957 0.598,-1.817 0.414,-0.5213 0.966,-0.92 1.656,-1.196 0.69,-0.2913 1.4413,-0.437 2.254,-0.437 1.0887,0 2.047,0.2223 2.875,0.667 0.828,0.4293 1.426,1.058 1.794,1.886 l -2.208,0.966 c -0.4447,-0.9047 -1.2573,-1.357 -2.438,-1.357 -0.5673,0 -1.0427,0.115 -1.426,0.345 -0.3833,0.23 -0.575,0.529 -0.575,0.897 0,0.3527 0.1457,0.644 0.437,0.874 0.2913,0.2147 0.7207,0.3987 1.288,0.552 l 1.725,0.437 c 1.15,0.2913 2.0163,0.736 2.599,1.334 0.598,0.5827 0.897,1.3033 0.897,2.162 0,0.736 -0.2147,1.3877 -0.644,1.955 -0.414,0.552 -0.989,0.9813 -1.725,1.288 -0.736,0.3067 -1.5487,0.46 -2.438,0.46 z m 11.6921,-0.184 c -0.5214,0 -1.012,-0.0843 -1.472,-0.253 -0.46,-0.1687 -0.8357,-0.391 -1.127,-0.667 -0.6594,-0.6593 -0.989,-1.5563 -0.989,-2.691 v -6.072 h -2.047 V 39.27 h 2.047 v -3.312 h 2.53 v 3.312 h 2.852 v 2.231 h -2.852 v 5.52 c 0,0.6287 0.1226,1.0733 0.368,1.334 0.23,0.3067 0.6286,0.46 1.196,0.46 0.2606,0 0.4906,-0.0307 0.69,-0.092 0.1993,-0.0767 0.414,-0.1917 0.644,-0.345 v 2.461 c -0.506,0.23 -1.1194,0.345 -1.84,0.345 z m 9.1096,0.184 c -1.15,0 -2.185,-0.2683 -3.105,-0.805 -0.9047,-0.5367 -1.6177,-1.2727 -2.139,-2.208 -0.506,-0.9507 -0.759,-2.0163 -0.759,-3.197 0,-1.1193 0.2453,-2.1543 0.736,-3.105 0.506,-0.966 1.2037,-1.7327 2.093,-2.3 0.8893,-0.5673 1.9013,-0.851 3.036,-0.851 1.1807,0 2.2003,0.2607 3.059,0.782 0.874,0.5213 1.5333,1.2343 1.978,2.139 0.46,0.9047 0.69,1.9243 0.69,3.059 0,0.2147 -0.023,0.483 -0.069,0.805 h -8.993 c 0.092,1.0887 0.4753,1.932 1.15,2.53 0.69,0.5827 1.4873,0.874 2.392,0.874 0.7207,0 1.3417,-0.161 1.863,-0.483 0.5367,-0.3373 0.966,-0.7897 1.288,-1.357 l 2.139,1.012 c -0.552,0.966 -1.2727,1.725 -2.162,2.277 -0.8893,0.552 -1.955,0.828 -3.197,0.828 z m 3.013,-7.613 c -0.0307,-0.414 -0.161,-0.8203 -0.391,-1.219 -0.23,-0.414 -0.5827,-0.759 -1.058,-1.035 -0.46,-0.276 -1.0273,-0.414 -1.702,-0.414 -0.8127,0 -1.5027,0.2453 -2.07,0.736 -0.552,0.4753 -0.9353,1.1193 -1.15,1.932 z m 4.8799,-4.485 h 2.415 v 1.725 h 0.115 c 0.2607,-0.598 0.713,-1.0887 1.357,-1.472 0.644,-0.3987 1.3264,-0.598 2.047,-0.598 0.5674,0 1.0427,0.0767 1.426,0.23 v 2.622 c -0.6746,-0.2453 -1.2803,-0.368 -1.817,-0.368 -0.5826,0 -1.104,0.1533 -1.564,0.46 -0.4446,0.3067 -0.7973,0.7207 -1.058,1.242 -0.2606,0.506 -0.391,1.0657 -0.391,1.679 V 51 h -2.53 z m 10.7479,-1.702 c -0.4754,0 -0.8817,-0.161 -1.219,-0.483 -0.322,-0.3373 -0.483,-0.7437 -0.483,-1.219 0,-0.4753 0.161,-0.874 0.483,-1.196 0.3373,-0.3373 0.7436,-0.506 1.219,-0.506 0.4753,0 0.874,0.1687 1.196,0.506 0.3373,0.322 0.506,0.7207 0.506,1.196 0,0.4753 -0.1687,0.8817 -0.506,1.219 -0.322,0.322 -0.7207,0.483 -1.196,0.483 z m -1.265,1.702 h 2.53 V 51 h -2.53 z m 9.9563,12.098 c -1.3494,0 -2.4534,-0.2913 -3.312,-0.874 -0.8587,-0.598 -1.4644,-1.357 -1.817,-2.277 l 2.254,-0.989 c 0.276,0.6133 0.6593,1.081 1.15,1.403 0.506,0.322 1.081,0.483 1.725,0.483 0.6286,0 1.1576,-0.1073 1.587,-0.322 0.4293,-0.23 0.644,-0.5673 0.644,-1.012 0,-0.4293 -0.184,-0.7667 -0.552,-1.012 -0.368,-0.2453 -0.9354,-0.46 -1.702,-0.644 l -1.403,-0.345 c -0.9354,-0.23 -1.7097,-0.6363 -2.323,-1.219 -0.6134,-0.5827 -0.92,-1.3187 -0.92,-2.208 0,-0.69 0.1993,-1.2957 0.598,-1.817 0.414,-0.5213 0.966,-0.92 1.656,-1.196 0.69,-0.2913 1.4413,-0.437 2.254,-0.437 1.0886,0 2.047,0.2223 2.875,0.667 0.828,0.4293 1.426,1.058 1.794,1.886 l -2.208,0.966 c -0.4447,-0.9047 -1.2574,-1.357 -2.438,-1.357 -0.5674,0 -1.0427,0.115 -1.426,0.345 -0.3834,0.23 -0.575,0.529 -0.575,0.897 0,0.3527 0.1456,0.644 0.437,0.874 0.2913,0.2147 0.7206,0.3987 1.288,0.552 l 1.725,0.437 c 1.15,0.2913 2.0163,0.736 2.599,1.334 0.598,0.5827 0.897,1.3033 0.897,2.162 0,0.736 -0.2147,1.3877 -0.644,1.955 -0.414,0.552 -0.989,0.9813 -1.725,1.288 -0.736,0.3067 -1.5487,0.46 -2.438,0.46 z m 6.9974,-16.836 h 2.53 v 9.591 h 0.069 l 4.8068,-4.853 h 3.174 v 0.138 l -4.554,4.531 4.692,6.923 V 51 h -3.013 l -3.4498,-5.313 -1.725,1.679 V 51 h -2.53 z"
       fill="url(#paint1_linear_11_21)"
       id="path4"
       style="fill:url(#linearGradient1079)" />
    <path
       d="M 164.16,119.456 C 165.568,96.716 184.507,51.0237 249,50.1755"
       stroke="#fc6c17"
       stroke-width="8"
       id="path6" />
    <path
       d="m 129.33,17.46 h 10.205 l 18.72,31.2 h 0.52 l -0.52,-8.97 V 17.46 h 8.71 V 64 h -9.23 l -19.76,-32.955 h -0.52 l 0.52,8.97 V 64 h -8.645 z m 69.837,47.58 c -4.463,0 -8.58,-1.04 -12.35,-3.12 -3.726,-2.1233 -6.695,-5.0267 -8.905,-8.71 -2.21,-3.7267 -3.315,-7.8867 -3.315,-12.48 0,-4.5933 1.105,-8.7317 3.315,-12.415 2.21,-3.7267 5.179,-6.63 8.905,-8.71 3.77,-2.1233 7.887,-3.185 12.35,-3.185 3.64,0 6.955,0.65 9.945,1.95 3.034,1.2567 5.634,3.055 7.8,5.395 l -6.045,5.915 c -1.56,-1.6467 -3.293,-2.8817 -5.2,-3.705 -1.863,-0.8233 -4.051,-1.235 -6.565,-1.235 -2.86,0 -5.481,0.6717 -7.865,2.015 -2.383,1.3 -4.29,3.185 -5.72,5.655 -1.386,2.4267 -2.08,5.2 -2.08,8.32 0,3.12 0.715,5.915 2.145,8.385 1.43,2.4267 3.337,4.3117 5.72,5.655 2.427,1.3 5.07,1.95 7.93,1.95 4.334,0 7.887,-1.2783 10.66,-3.835 0.867,-0.78 1.625,-1.7767 2.275,-2.99 0.65,-1.2133 1.127,-2.535 1.43,-3.965 h -14.625 v -7.475 h 22.815 c 0.304,1.2133 0.455,2.5783 0.455,4.095 0,3.0767 -0.476,5.9367 -1.43,8.58 -0.91,2.6433 -2.318,4.9617 -4.225,6.955 -2.08,2.2533 -4.593,3.9867 -7.54,5.2 -2.946,1.17 -6.24,1.755 -9.88,1.755 z"
       fill="#ffffff"
       id="path8" />
    <path
       d="m 146.047,111.127 c 1.647,-26.5908 23.793,-80.02 99.206,-81.0119"
       stroke="#fc6c17"
       stroke-width="4"
       id="path10" />
  </g>
  <defs
     id="defs29">
    <linearGradient
       id="paint0_linear_11_21"
       x1="241"
       y1="0"
       x2="-4.75755e-06"
       y2="85"
       gradientUnits="userSpaceOnUse">
      <stop
         stop-color="#FE8813"
         id="stop14" />
      <stop
         offset="1"
         stop-color="#F57C33"
         id="stop16" />
    </linearGradient>
    <linearGradient
       id="paint1_linear_11_21"
       x1="93.948898"
       y1="35.842701"
       x2="15.5961"
       y2="47.600201"
       gradientUnits="userSpaceOnUse">
      <stop
         stop-color="white"
         id="stop19" />
      <stop
         offset="0.0001"
         stop-color="white"
         id="stop21" />
      <stop
         offset="1"
         stop-color="#FFFCFB"
         id="stop23" />
    </linearGradient>
    <clipPath
       id="clip0_11_21">
      <rect
         width="241"
         height="85"
         fill="#ffffff"
         id="rect26"
         x="0"
         y="0" />
    </clipPath>
    <linearGradient
       inkscape:collect="always"
       xlink:href="#paint0_linear_11_21"
       id="linearGradient1030"
       gradientUnits="userSpaceOnUse"
       x1="241"
       y1="0"
       x2="-4.75755e-06"
       y2="85" />
    <linearGradient
       inkscape:collect="always"
       xlink:href="#paint1_linear_11_21"
       id="linearGradient1032"
       gradientUnits="userSpaceOnUse"
       x1="93.948898"
       y1="35.842701"
       x2="15.5961"
       y2="47.600201" />
    <linearGradient
       inkscape:collect="always"
       xlink:href="#paint0_linear_11_21"
       id="linearGradient1077"
       gradientUnits="userSpaceOnUse"
       x1="241"
       y1="0"
       x2="-4.75755e-06"
       y2="85" />
    <linearGradient
       inkscape:collect="always"
       xlink:href="#paint1_linear_11_21"
       id="linearGradient1079"
       gradientUnits="userSpaceOnUse"
       x1="93.948898"
       y1="35.842701"
       x2="15.5961"
       y2="47.600201" />
  </defs>
  <rect
     style="fill:#fe8813;fill-opacity:1;stroke-width:1.20786"
     id="rect964"
     width="174"
     height="109"
     x="0.25713229"
     y="0.049049612" />
  <g
     clip-path="url(#clip0_11_21)"
     id="g1028"
     transform="matrix(0.7219917,0,0,0.7219917,-0.07125076,27.5)">
    <rect
       width="241"
       height="85"
       fill="url(#paint0_linear_11_21)"
       id="rect1018"
       x="0"
       y="0"
       style="fill:url(#linearGradient1030)" />
    <path
       d="m 24.2263,34.532 h 2.944 L 33.3573,51 h -2.852 l -1.472,-4.209 h -6.647 L 20.8913,51 h -2.852 z m 3.933,9.867 -1.748,-4.899 -0.644,-1.909 h -0.138 l -0.644,1.909 -1.748,4.899 z m 11.2997,6.969 c -1.3493,0 -2.4533,-0.2913 -3.312,-0.874 -0.8587,-0.598 -1.4643,-1.357 -1.817,-2.277 l 2.254,-0.989 c 0.276,0.6133 0.6593,1.081 1.15,1.403 0.506,0.322 1.081,0.483 1.725,0.483 0.6287,0 1.1577,-0.1073 1.587,-0.322 0.4293,-0.23 0.644,-0.5673 0.644,-1.012 0,-0.4293 -0.184,-0.7667 -0.552,-1.012 -0.368,-0.2453 -0.9353,-0.46 -1.702,-0.644 l -1.403,-0.345 c -0.9353,-0.23 -1.7097,-0.6363 -2.323,-1.219 -0.6133,-0.5827 -0.92,-1.3187 -0.92,-2.208 0,-0.69 0.1993,-1.2957 0.598,-1.817 0.414,-0.5213 0.966,-0.92 1.656,-1.196 0.69,-0.2913 1.4413,-0.437 2.254,-0.437 1.0887,0 2.047,0.2223 2.875,0.667 0.828,0.4293 1.426,1.058 1.794,1.886 l -2.208,0.966 c -0.4447,-0.9047 -1.2573,-1.357 -2.438,-1.357 -0.5673,0 -1.0427,0.115 -1.426,0.345 -0.3833,0.23 -0.575,0.529 -0.575,0.897 0,0.3527 0.1457,0.644 0.437,0.874 0.2913,0.2147 0.7207,0.3987 1.288,0.552 l 1.725,0.437 c 1.15,0.2913 2.0163,0.736 2.599,1.334 0.598,0.5827 0.897,1.3033 0.897,2.162 0,0.736 -0.2147,1.3877 -0.644,1.955 -0.414,0.552 -0.989,0.9813 -1.725,1.288 -0.736,0.3067 -1.5487,0.46 -2.438,0.46 z m 11.6921,-0.184 c -0.5214,0 -1.012,-0.0843 -1.472,-0.253 -0.46,-0.1687 -0.8357,-0.391 -1.127,-0.667 -0.6594,-0.6593 -0.989,-1.5563 -0.989,-2.691 v -6.072 h -2.047 V 39.27 h 2.047 v -3.312 h 2.53 v 3.312 h 2.852 v 2.231 h -2.852 v 5.52 c 0,0.6287 0.1226,1.0733 0.368,1.334 0.23,0.3067 0.6286,0.46 1.196,0.46 0.2606,0 0.4906,-0.0307 0.69,-0.092 0.1993,-0.0767 0.414,-0.1917 0.644,-0.345 v 2.461 c -0.506,0.23 -1.1194,0.345 -1.84,0.345 z m 9.1096,0.184 c -1.15,0 -2.185,-0.2683 -3.105,-0.805 -0.9047,-0.5367 -1.6177,-1.2727 -2.139,-2.208 -0.506,-0.9507 -0.759,-2.0163 -0.759,-3.197 0,-1.1193 0.2453,-2.1543 0.736,-3.105 0.506,-0.966 1.2037,-1.7327 2.093,-2.3 0.8893,-0.5673 1.9013,-0.851 3.036,-0.851 1.1807,0 2.2003,0.2607 3.059,0.782 0.874,0.5213 1.5333,1.2343 1.978,2.139 0.46,0.9047 0.69,1.9243 0.69,3.059 0,0.2147 -0.023,0.483 -0.069,0.805 h -8.993 c 0.092,1.0887 0.4753,1.932 1.15,2.53 0.69,0.5827 1.4873,0.874 2.392,0.874 0.7207,0 1.3417,-0.161 1.863,-0.483 0.5367,-0.3373 0.966,-0.7897 1.288,-1.357 l 2.139,1.012 c -0.552,0.966 -1.2727,1.725 -2.162,2.277 -0.8893,0.552 -1.955,0.828 -3.197,0.828 z m 3.013,-7.613 c -0.0307,-0.414 -0.161,-0.8203 -0.391,-1.219 -0.23,-0.414 -0.5827,-0.759 -1.058,-1.035 -0.46,-0.276 -1.0273,-0.414 -1.702,-0.414 -0.8127,0 -1.5027,0.2453 -2.07,0.736 -0.552,0.4753 -0.9353,1.1193 -1.15,1.932 z m 4.8799,-4.485 h 2.415 v 1.725 h 0.115 c 0.2607,-0.598 0.713,-1.0887 1.357,-1.472 0.644,-0.3987 1.3264,-0.598 2.047,-0.598 0.5674,0 1.0427,0.0767 1.426,0.23 v 2.622 c -0.6746,-0.2453 -1.2803,-0.368 -1.817,-0.368 -0.5826,0 -1.104,0.1533 -1.564,0.46 -0.4446,0.3067 -0.7973,0.7207 -1.058,1.242 -0.2606,0.506 -0.391,1.0657 -0.391,1.679 V 51 h -2.53 z m 10.7479,-1.702 c -0.4754,0 -0.8817,-0.161 -1.219,-0.483 -0.322,-0.3373 -0.483,-0.7437 -0.483,-1.219 0,-0.4753 0.161,-0.874 0.483,-1.196 0.3373,-0.3373 0.7436,-0.506 1.219,-0.506 0.4753,0 0.874,0.1687 1.196,0.506 0.3373,0.322 0.506,0.7207 0.506,1.196 0,0.4753 -0.1687,0.8817 -0.506,1.219 -0.322,0.322 -0.7207,0.483 -1.196,0.483 z m -1.265,1.702 h 2.53 V 51 h -2.53 z m 9.9563,12.098 c -1.3494,0 -2.4534,-0.2913 -3.312,-0.874 -0.8587,-0.598 -1.4644,-1.357 -1.817,-2.277 l 2.254,-0.989 c 0.276,0.6133 0.6593,1.081 1.15,1.403 0.506,0.322 1.081,0.483 1.725,0.483 0.6286,0 1.1576,-0.1073 1.587,-0.322 0.4293,-0.23 0.644,-0.5673 0.644,-1.012 0,-0.4293 -0.184,-0.7667 -0.552,-1.012 -0.368,-0.2453 -0.9354,-0.46 -1.702,-0.644 l -1.403,-0.345 c -0.9354,-0.23 -1.7097,-0.6363 -2.323,-1.219 -0.6134,-0.5827 -0.92,-1.3187 -0.92,-2.208 0,-0.69 0.1993,-1.2957 0.598,-1.817 0.414,-0.5213 0.966,-0.92 1.656,-1.196 0.69,-0.2913 1.4413,-0.437 2.254,-0.437 1.0886,0 2.047,0.2223 2.875,0.667 0.828,0.4293 1.426,1.058 1.794,1.886 l -2.208,0.966 c -0.4447,-0.9047 -1.2574,-1.357 -2.438,-1.357 -0.5674,0 -1.0427,0.115 -1.426,0.345 -0.3834,0.23 -0.575,0.529 -0.575,0.897 0,0.3527 0.1456,0.644 0.437,0.874 0.2913,0.2147 0.7206,0.3987 1.288,0.552 l 1.725,0.437 c 1.15,0.2913 2.0163,0.736 2.599,1.334 0.598,0.5827 0.897,1.3033 0.897,2.162 0,0.736 -0.2147,1.3877 -0.644,1.955 -0.414,0.552 -0.989,0.9813 -1.725,1.288 -0.736,0.3067 -1.5487,0.46 -2.438,0.46 z m 6.9974,-16.836 h 2.53 v 9.591 h 0.069 l 4.8068,-4.853 h 3.174 v 0.138 l -4.554,4.531 4.692,6.923 V 51 h -3.013 l -3.4498,-5.313 -1.725,1.679 V 51 h -2.53 z"
       fill="url(#paint1_linear_11_21)"
       id="path1020"
       style="fill:url(#linearGradient1032)" />
    <path
       d="M 164.16,119.456 C 165.568,96.716 184.507,51.0237 249,50.1755"
       stroke="#fc6c17"
       stroke-width="8"
       id="path1022" />
    <path
       d="m 129.33,17.46 h 10.205 l 18.72,31.2 h 0.52 l -0.52,-8.97 V 17.46 h 8.71 V 64 h -9.23 l -19.76,-32.955 h -0.52 l 0.52,8.97 V 64 h -8.645 z m 69.837,47.58 c -4.463,0 -8.58,-1.04 -12.35,-3.12 -3.726,-2.1233 -6.695,-5.0267 -8.905,-8.71 -2.21,-3.7267 -3.315,-7.8867 -3.315,-12.48 0,-4.5933 1.105,-8.7317 3.315,-12.415 2.21,-3.7267 5.179,-6.63 8.905,-8.71 3.77,-2.1233 7.887,-3.185 12.35,-3.185 3.64,0 6.955,0.65 9.945,1.95 3.034,1.2567 5.634,3.055 7.8,5.395 l -6.045,5.915 c -1.56,-1.6467 -3.293,-2.8817 -5.2,-3.705 -1.863,-0.8233 -4.051,-1.235 -6.565,-1.235 -2.86,0 -5.481,0.6717 -7.865,2.015 -2.383,1.3 -4.29,3.185 -5.72,5.655 -1.386,2.4267 -2.08,5.2 -2.08,8.32 0,3.12 0.715,5.915 2.145,8.385 1.43,2.4267 3.337,4.3117 5.72,5.655 2.427,1.3 5.07,1.95 7.93,1.95 4.334,0 7.887,-1.2783 10.66,-3.835 0.867,-0.78 1.625,-1.7767 2.275,-2.99 0.65,-1.2133 1.127,-2.535 1.43,-3.965 h -14.625 v -7.475 h 22.815 c 0.304,1.2133 0.455,2.5783 0.455,4.095 0,3.0767 -0.476,5.9367 -1.43,8.58 -0.91,2.6433 -2.318,4.9617 -4.225,6.955 -2.08,2.2533 -4.593,3.9867 -7.54,5.2 -2.946,1.17 -6.24,1.755 -9.88,1.755 z"
       fill="#ffffff"
       id="path1024" />
    <path
       d="m 146.047,111.127 c 1.647,-26.5908 23.793,-80.02 99.206,-81.0119"
       stroke="#fc6c17"
       stroke-width="4"
       id="path1026" />
  </g>
</svg>
