<svg width="108" height="108" viewBox="0 0 108 108" fill="none" xmlns="http://www.w3.org/2000/svg">
<g clip-path="url(#clip0_11_16)">
<rect width="108" height="108" fill="url(#paint0_linear_11_16)"/>
<path d="M43.1599 128.456C44.568 105.716 63.5073 60.0237 128 59.1755" stroke="#FC6C17" stroke-width="8"/>
<path d="M15.51 43.62H24.145L39.985 70.02H40.425L39.985 62.43V43.62H47.355V83H39.545L22.825 55.115H22.385L22.825 62.705V83H15.51V43.62ZM74.6032 83.88C70.8265 83.88 67.3432 83 64.1532 81.24C60.9999 79.4433 58.4882 76.9867 56.6182 73.87C54.7482 70.7167 53.8132 67.1967 53.8132 63.31C53.8132 59.4233 54.7482 55.9217 56.6182 52.805C58.4882 49.6517 60.9999 47.195 64.1532 45.435C67.3432 43.6383 70.8265 42.74 74.6032 42.74C77.6832 42.74 80.4882 43.29 83.0182 44.39C85.5849 45.4533 87.7849 46.975 89.6182 48.955L84.5032 53.96C83.1832 52.5667 81.7165 51.5217 80.1032 50.825C78.5265 50.1283 76.6749 49.78 74.5482 49.78C72.1282 49.78 69.9099 50.3483 67.8932 51.485C65.8765 52.585 64.2632 54.18 63.0532 56.27C61.8799 58.3233 61.2932 60.67 61.2932 63.31C61.2932 65.95 61.8982 68.315 63.1082 70.405C64.3182 72.4583 65.9315 74.0533 67.9482 75.19C70.0015 76.29 72.2382 76.84 74.6582 76.84C78.3249 76.84 81.3315 75.7583 83.6782 73.595C84.4115 72.935 85.0532 72.0917 85.6032 71.065C86.1532 70.0383 86.5565 68.92 86.8132 67.71H74.4382V61.385H93.7432C93.9999 62.4117 94.1282 63.5667 94.1282 64.85C94.1282 67.4533 93.7249 69.8733 92.9182 72.11C92.1482 74.3467 90.9565 76.3083 89.3432 77.995C87.5832 79.9017 85.4565 81.3683 82.9632 82.395C80.4699 83.385 77.6832 83.88 74.6032 83.88Z" fill="white"/>
<path d="M25.0472 120.127C26.6938 93.5362 48.8401 40.107 124.253 39.1151" stroke="#FC6C17" stroke-width="4"/>
<path d="M19.762 20.68H22.322L27.702 35H25.222L23.942 31.34H18.162L16.862 35H14.382L19.762 20.68ZM23.182 29.26L21.662 25L21.102 23.34H20.982L20.422 25L18.902 29.26H23.182ZM33.0078 35.32C31.8345 35.32 30.8745 35.0667 30.1278 34.56C29.3811 34.04 28.8545 33.38 28.5478 32.58L30.5078 31.72C30.7478 32.2533 31.0811 32.66 31.5078 32.94C31.9478 33.22 32.4478 33.36 33.0078 33.36C33.5545 33.36 34.0145 33.2667 34.3878 33.08C34.7611 32.88 34.9478 32.5867 34.9478 32.2C34.9478 31.8267 34.7878 31.5333 34.4678 31.32C34.1478 31.1067 33.6545 30.92 32.9878 30.76L31.7678 30.46C30.9545 30.26 30.2811 29.9067 29.7478 29.4C29.2145 28.8933 28.9478 28.2533 28.9478 27.48C28.9478 26.88 29.1211 26.3533 29.4678 25.9C29.8278 25.4467 30.3078 25.1 30.9078 24.86C31.5078 24.6067 32.1611 24.48 32.8678 24.48C33.8145 24.48 34.6478 24.6733 35.3678 25.06C36.0878 25.4333 36.6078 25.98 36.9278 26.7L35.0078 27.54C34.6211 26.7533 33.9145 26.36 32.8878 26.36C32.3945 26.36 31.9811 26.46 31.6478 26.66C31.3145 26.86 31.1478 27.12 31.1478 27.44C31.1478 27.7467 31.2745 28 31.5278 28.2C31.7811 28.3867 32.1545 28.5467 32.6478 28.68L34.1478 29.06C35.1478 29.3133 35.9011 29.7 36.4078 30.22C36.9278 30.7267 37.1878 31.3533 37.1878 32.1C37.1878 32.74 37.0011 33.3067 36.6278 33.8C36.2678 34.28 35.7678 34.6533 35.1278 34.92C34.4878 35.1867 33.7811 35.32 33.0078 35.32ZM43.1748 35.16C42.7215 35.16 42.2948 35.0867 41.8948 34.94C41.4948 34.7933 41.1682 34.6 40.9148 34.36C40.3415 33.7867 40.0548 33.0067 40.0548 32.02V26.74H38.2748V24.8H40.0548V21.92H42.2548V24.8H44.7348V26.74H42.2548V31.54C42.2548 32.0867 42.3615 32.4733 42.5748 32.7C42.7748 32.9667 43.1215 33.1 43.6148 33.1C43.8415 33.1 44.0415 33.0733 44.2148 33.02C44.3882 32.9533 44.5748 32.8533 44.7748 32.72V34.86C44.3348 35.06 43.8015 35.16 43.1748 35.16ZM51.0963 35.32C50.0963 35.32 49.1963 35.0867 48.3963 34.62C47.6096 34.1533 46.9896 33.5133 46.5363 32.7C46.0963 31.8733 45.8763 30.9467 45.8763 29.92C45.8763 28.9467 46.0896 28.0467 46.5163 27.22C46.9563 26.38 47.5629 25.7133 48.3363 25.22C49.1096 24.7267 49.9896 24.48 50.9763 24.48C52.0029 24.48 52.8896 24.7067 53.6363 25.16C54.3963 25.6133 54.9696 26.2333 55.3563 27.02C55.7563 27.8067 55.9563 28.6933 55.9563 29.68C55.9563 29.8667 55.9363 30.1 55.8963 30.38H48.0763C48.1563 31.3267 48.4896 32.06 49.0763 32.58C49.6763 33.0867 50.3696 33.34 51.1563 33.34C51.7829 33.34 52.3229 33.2 52.7763 32.92C53.2429 32.6267 53.6163 32.2333 53.8963 31.74L55.7563 32.62C55.2763 33.46 54.6496 34.12 53.8763 34.6C53.1029 35.08 52.1763 35.32 51.0963 35.32ZM53.7163 28.7C53.6896 28.34 53.5763 27.9867 53.3763 27.64C53.1763 27.28 52.8696 26.98 52.4563 26.74C52.0563 26.5 51.5629 26.38 50.9763 26.38C50.2696 26.38 49.6696 26.5933 49.1763 27.02C48.6963 27.4333 48.3629 27.9933 48.1763 28.7H53.7163ZM57.9597 24.8H60.0597V26.3H60.1597C60.3864 25.78 60.7797 25.3533 61.3397 25.02C61.8997 24.6733 62.493 24.5 63.1197 24.5C63.613 24.5 64.0264 24.5667 64.3597 24.7V26.98C63.773 26.7667 63.2464 26.66 62.7797 26.66C62.273 26.66 61.8197 26.7933 61.4197 27.06C61.033 27.3267 60.7264 27.6867 60.4997 28.14C60.273 28.58 60.1597 29.0667 60.1597 29.6V35H57.9597V24.8ZM67.3056 23.32C66.8923 23.32 66.539 23.18 66.2456 22.9C65.9656 22.6067 65.8256 22.2533 65.8256 21.84C65.8256 21.4267 65.9656 21.08 66.2456 20.8C66.539 20.5067 66.8923 20.36 67.3056 20.36C67.719 20.36 68.0656 20.5067 68.3456 20.8C68.639 21.08 68.7856 21.4267 68.7856 21.84C68.7856 22.2533 68.639 22.6067 68.3456 22.9C68.0656 23.18 67.719 23.32 67.3056 23.32ZM66.2056 24.8H68.4056V35H66.2056V24.8ZM74.8633 35.32C73.6899 35.32 72.7299 35.0667 71.9833 34.56C71.2366 34.04 70.7099 33.38 70.4033 32.58L72.3633 31.72C72.6033 32.2533 72.9366 32.66 73.3633 32.94C73.8033 33.22 74.3033 33.36 74.8633 33.36C75.4099 33.36 75.8699 33.2667 76.2433 33.08C76.6166 32.88 76.8033 32.5867 76.8033 32.2C76.8033 31.8267 76.6433 31.5333 76.3233 31.32C76.0033 31.1067 75.5099 30.92 74.8433 30.76L73.6233 30.46C72.8099 30.26 72.1366 29.9067 71.6033 29.4C71.0699 28.8933 70.8033 28.2533 70.8033 27.48C70.8033 26.88 70.9766 26.3533 71.3233 25.9C71.6833 25.4467 72.1633 25.1 72.7633 24.86C73.3633 24.6067 74.0166 24.48 74.7233 24.48C75.6699 24.48 76.5033 24.6733 77.2233 25.06C77.9433 25.4333 78.4633 25.98 78.7833 26.7L76.8633 27.54C76.4766 26.7533 75.7699 26.36 74.7433 26.36C74.2499 26.36 73.8366 26.46 73.5033 26.66C73.1699 26.86 73.0033 27.12 73.0033 27.44C73.0033 27.7467 73.1299 28 73.3833 28.2C73.6366 28.3867 74.0099 28.5467 74.5033 28.68L76.0033 29.06C77.0033 29.3133 77.7566 29.7 78.2633 30.22C78.7833 30.7267 79.0433 31.3533 79.0433 32.1C79.0433 32.74 78.8566 33.3067 78.4833 33.8C78.1233 34.28 77.6233 34.6533 76.9833 34.92C76.3433 35.1867 75.6366 35.32 74.8633 35.32ZM80.948 20.68H83.148V29.02H83.208L87.388 24.8H90.148V24.92L86.188 28.86L90.268 34.88V35H87.648L84.648 30.38L83.148 31.84V35H80.948V20.68Z" fill="url(#paint1_linear_11_16)"/>
</g>
<defs>
<linearGradient id="paint0_linear_11_16" x1="108" y1="0" x2="0" y2="108" gradientUnits="userSpaceOnUse">
<stop stop-color="#FF8910"/>
<stop offset="1" stop-color="#F47B35"/>
</linearGradient>
<linearGradient id="paint1_linear_11_16" x1="90.9489" y1="21.8989" x2="13.1879" y2="35.4346" gradientUnits="userSpaceOnUse">
<stop stop-color="white"/>
<stop offset="0.0001" stop-color="white"/>
<stop offset="1" stop-color="#FFFCFB"/>
</linearGradient>
<clipPath id="clip0_11_16">
<rect width="108" height="108" fill="white"/>
</clipPath>
</defs>
</svg>
